<svg xmlns="http://www.w3.org/2000/svg" xmlns:xlink="http://www.w3.org/1999/xlink" width="24" height="24" viewBox="0 0 24 24" fill="none">
<path d="M11 11L11 5L13 5L13 11L19 11L19 13L13 13L13 19L11 19L11 13L5 13L5 11L11 11Z"   fill="#A6A6A6" >
</path>
<path   fill-rule="evenodd"  fill="#A6A6A6"  d="M22 12C22 6.477 17.523 2 12 2C6.477 2 2 6.477 2 12C2 17.523 6.477 22 12 22C17.523 22 22 17.523 22 12ZM12 4C16.4182 4 20 7.58176 20 12C20 16.4182 16.4182 20 12 20C7.58176 20 4 16.4182 4 12C4 7.58176 7.58176 4 12 4ZM11 7L11 11L7 11L7 13L11 13L11 17L13 17L13 13L17 13L17 11L13 11L13 7L11 7Z">
</path>
</svg>
