<svg xmlns="http://www.w3.org/2000/svg" xmlns:xlink="http://www.w3.org/1999/xlink" width="16" height="16" viewBox="0 0 16 16" fill="none">
<path   fill-rule="evenodd"  fill="#A6A6A6"  d="M7.09 0C11.003 0 14.18 3.17704 14.18 7.09C14.18 8.69848 13.6359 10.2551 12.63 11.51L16 14.89L14.89 16L11.51 12.63C10.2551 13.6359 8.69848 14.18 7.09 14.18C3.17704 14.18 0 11.003 0 7.09C0 3.17704 3.17704 0 7.09 0ZM7.0853 1.5753C10.131 1.5753 12.6053 4.03868 12.6053 7.0853C12.6053 8.51913 12.0449 9.89737 11.0453 10.9253L10.9253 11.0453C9.89737 12.0449 8.51913 12.6053 7.0853 12.6053C4.03868 12.6053 1.5753 10.131 1.5753 7.0853C1.5753 4.03868 4.03868 1.5753 7.0853 1.5753Z">
</path>
</svg>
