<svg xmlns="http://www.w3.org/2000/svg" xmlns:xlink="http://www.w3.org/1999/xlink" width="24" height="24" viewBox="0 0 24 24" fill="none">
<path   fill-rule="evenodd"  fill="#A6A6A6"  d="M9.33 21.642C9.84177 20.6358 10.8713 20.002 12 20.002C13.1289 20.002 14.1582 20.6358 14.67 21.642C16.3043 21.1884 17.8011 20.3213 19.01 19.132C18.3958 18.1855 18.3656 16.9789 18.93 16.002C19.4946 15.0251 20.5533 14.4424 21.68 14.502C21.886 13.7011 22 12.8669 22 12.002C22 11.1371 21.886 10.302 21.68 9.502C20.5531 9.56195 19.4946 8.97929 18.93 8.002C18.3654 7.0249 18.3952 5.80845 19.01 4.862C17.8011 3.67267 16.3043 2.81556 14.67 2.362C14.1582 3.36821 13.1289 4.002 12 4.002C10.8713 4.002 9.84177 3.36821 9.33 2.362C7.69568 2.81556 6.19894 3.67267 4.99 4.862C5.60397 5.80826 5.63417 7.02509 5.07 8.002C4.50563 8.97871 3.44654 9.55118 2.32 9.492C2.11401 10.2929 2 11.1371 2 12.002C2 12.8681 2.10501 13.703 2.31 14.502C3.43694 14.4421 4.50543 15.0247 5.07 16.002C5.63457 16.9791 5.60477 18.1855 4.99 19.132C6.19894 20.3213 7.69568 21.1884 9.33 21.642ZM17.1993 8.996C16.5836 7.93094 16.3768 6.68014 16.6293 5.476C16.2214 5.18591 15.7841 4.93476 15.3293 4.726C14.4129 5.54694 13.2296 5.996 11.9993 5.996C10.7686 5.996 9.58602 5.54723 8.6693 4.726C8.21438 4.93476 7.77734 5.18591 7.3693 5.476C7.62196 6.68014 7.41503 7.93094 6.7993 8.996C6.18469 10.0616 5.1982 10.8628 4.0293 11.246C3.98306 11.7449 3.98306 12.2471 4.0293 12.746C5.19868 13.129 6.19437 13.9302 6.8093 14.996L6.7993 14.996C7.42927 16.0871 7.6154 17.3479 7.3693 18.526C7.77734 18.8159 8.21438 19.0669 8.6693 19.276C9.58602 18.4548 10.7686 17.996 11.9993 17.996C13.2592 17.996 14.4423 18.4729 15.3393 19.276C15.7942 19.0669 16.2213 18.8159 16.6293 18.526C16.3766 17.3219 16.5836 16.0611 17.1993 14.996C17.8139 13.9304 18.8004 13.1292 19.9693 12.746C20.0155 12.2471 20.0155 11.7449 19.9693 11.246C18.7999 10.863 17.8142 10.0618 17.1993 8.996ZM15 12C15 10.3432 13.6568 9 12 9C10.3432 9 9 10.3432 9 12C9 13.6568 10.3432 15 12 15C13.6568 15 15 13.6568 15 12ZM13 12C13 11.4477 12.5523 11 12 11C11.4477 11 11 11.4477 11 12C11 12.5523 11.4477 13 12 13C12.5523 13 13 12.5523 13 12Z">
</path>
</svg>
